# xmcd
#
# Track frame offsets:
#	150
#	15360
#	29630
#	41151
#	64717
#	81843
#	100407
#	115878
#	130015
#	153239
#	166154
#	177627
#
# Disc length: 2548 seconds
#
# Revision: 4
# Processed by: cddbd v1.5.1PL2 Copyright (c) Steve Scherf et al.
# Submitted via: EasyCDDAExtractor 9.0.0.1
#
DISCID=9709f20c
DTITLE=Blue Highway - Wind To The West
DYEAR=1996
DGENRE=Bluegrass
TTITLE0=Wind To The West
TTITLE1=Howling Wind
TTITLE2=I Can Stand The Truth
TTITLE3=Good Time Blues
TTITLE4=Two Coats
TTITLE5=The Rounder
TTITLE6=I Let A Good Woman Go
TTITLE7=Clear Cut
TTITLE8=God Moves In A Windstorm
TTITLE9=Horseshoe Bend
TTITLE10=West Virginia's Last Hand Loader
TTITLE11=Huntsville
EXTD=
EXTT0=
EXTT1=
EXTT2=
EXTT3=
EXTT4=
EXTT5=
EXTT6=
EXTT7=
EXTT8=
EXTT9=
EXTT10=
EXTT11=
PLAYORDER=
